<!DOCTYPE svg PUBLIC "-//W3C//DTD SVG 1.1//EN" "http://www.w3.org/Graphics/SVG/1.1/DTD/svg11.dtd">
<!-- Uploaded to: SVG Repo, www.svgrepo.com, Transformed by: SVG Repo Mixer Tools -->
<svg fill="#654e2b" version="1.1" baseProfile="tiny" id="Layer_1" xmlns:x="&amp;ns_extend;" xmlns:i="&amp;ns_ai;" xmlns:graph="&amp;ns_graphs;" xmlns="http://www.w3.org/2000/svg" xmlns:xlink="http://www.w3.org/1999/xlink" xmlns:a="http://ns.adobe.com/AdobeSVGViewerExtensions/3.0/" width="800px" height="800px" viewBox="-0.5 0.5 42 42" xml:space="preserve">
<g id="SVGRepo_bgCarrier" stroke-width="0"/>
<g id="SVGRepo_tracerCarrier" stroke-linecap="round" stroke-linejoin="round"/>
<g id="SVGRepo_iconCarrier"> <path d="M18.5,35.5l-8,2c-0.48,0.04-1,0.52-1,1v1c0,0.5,0.47,1,1,1h20c0.43,0,1-0.41,1-1v-1c-0.02-0.52-0.55-0.98-1-1l-8-2H18.5z M37.5,34.5c2.59,0,3-0.529,3-3v-26c0-2.391-0.55-3-3-3h-34c-2.43,0-3,0.54-3,3v26c0,2.51,0.529,3,3,3h13.4h7.2H37.5z M35.5,7.5v22 h-30v-22H35.5z"/> </g>
</svg>