<svg xmlns="http://www.w3.org/2000/svg" viewBox="0 -0.5 24 24" shape-rendering="crispEdges">
<metadata>Made with Pixels to Svg https://codepen.io/shshaw/pen/XbxvNj</metadata>
<path stroke="rgba(255,255,255,0.07058823529411765)" d="M0 0h1" />
<path stroke="#303030" d="M1 0h21M0 1h1M22 1h1M0 2h1M18 2h2M22 2h2M0 3h1M9 3h5M18 3h2M22 3h2M0 4h1M7 4h2M14 4h2M22 4h2M0 5h1M5 5h2M16 5h2M22 5h2M0 6h1M4 6h1M9 6h5M18 6h1M22 6h2M0 7h4M7 7h9M19 7h5M0 8h1M6 8h11M22 8h2M0 9h1M5 9h13M22 9h2M0 10h1M5 10h5M13 10h5M22 10h2M0 11h1M4 11h5M14 11h5M22 11h2M0 12h1M4 12h4M15 12h4M22 12h2M0 13h1M4 13h4M15 13h4M22 13h2M0 14h1M4 14h4M15 14h4M22 14h2M0 15h1M4 15h5M14 15h5M22 15h2M0 16h1M5 16h5M13 16h5M22 16h2M0 17h1M5 17h13M22 17h2M0 18h1M5 18h12M22 18h2M0 19h1M7 19h9M22 19h2M0 20h1M9 20h5M22 20h2M0 21h1M22 21h2M0 22h24M1 23h23" />
<path stroke="rgba(255,255,255,0.07450980392156863)" d="M22 0h1" />
<path stroke="rgba(255,255,255,0.11764705882352941)" d="M23 0h1" />
<path stroke="#ffffff" d="M1 1h21M1 2h17M20 2h2M1 3h8M14 3h4M20 3h2M1 4h6M9 4h5M16 4h6M1 5h4M7 5h9M18 5h4M1 6h3M5 6h4M14 6h4M19 6h3M4 7h3M16 7h3M1 8h5M17 8h5M1 9h4M18 9h4M1 10h4M10 10h3M18 10h4M1 11h3M9 11h5M19 11h3M1 12h3M8 12h7M19 12h3M1 13h3M8 13h7M19 13h3M1 14h3M8 14h7M19 14h3M1 15h3M9 15h5M19 15h3M1 16h4M10 16h3M18 16h4M1 17h4M18 17h4M1 18h4M17 18h5M1 19h6M16 19h6M1 20h8M14 20h8M1 21h21" />
<path stroke="rgba(255,255,255,0.2627450980392157)" d="M23 1h1" />
<path stroke="rgba(255,255,255,0.058823529411764705)" d="M0 23h1" />
</svg>